<svg xmlns="http://www.w3.org/2000/svg" xmlns:xlink="http://www.w3.org/1999/xlink" viewBox="0 0 737.6 348" width="737.6" height="348"><path d="M 259.600,128.800 C 256.100,126.800 256.327,125.947 252.600,124.800" stroke-width="5.448" stroke="black" fill="none" stroke-linecap="round"></path><path d="M 252.600,124.800 C 249.827,123.947 249.464,124.139 246.600,124.800" stroke-width="4.964" stroke="black" fill="none" stroke-linecap="round"></path><path d="M 246.600,124.800 C 242.964,125.639 242.756,125.792 239.600,127.800" stroke-width="4.662" stroke="black" fill="none" stroke-linecap="round"></path><path d="M 239.600,127.800 C 237.256,129.292 237.803,130.038 235.600,131.800" stroke-width="4.344" stroke="black" fill="none" stroke-linecap="round"></path><path d="M 235.600,131.800 C 230.303,136.038 229.864,135.523 224.600,139.800" stroke-width="4.480" stroke="black" fill="none" stroke-linecap="round"></path><path d="M 224.600,139.800 C 221.864,142.023 221.943,142.164 219.600,144.800" stroke-width="4.776" stroke="black" fill="none" stroke-linecap="round"></path><path d="M 219.600,144.800 C 217.943,146.664 218.100,146.800 216.600,148.800" stroke-width="4.372" stroke="black" fill="none" stroke-linecap="round"></path><path d="M 216.600,148.800 C 215.100,150.800 214.519,150.503 213.600,152.800" stroke-width="4.354" stroke="black" fill="none" stroke-linecap="round"></path><path d="M 213.600,152.800 C 210.519,160.503 210.858,160.735 208.600,168.800" stroke-width="3.164" stroke="black" fill="none" stroke-linecap="round"></path><path d="M 208.600,168.800 C 207.358,173.235 207.168,173.253 206.600,177.800" stroke-width="3.437" stroke="black" fill="none" stroke-linecap="round"></path><path d="M 206.600,177.800 C 206.168,181.253 206.351,181.318 206.600,184.800" stroke-width="3.803" stroke="black" fill="none" stroke-linecap="round"></path><path d="M 206.600,184.800 C 206.851,188.318 206.362,188.582 207.600,191.800" stroke-width="3.920" stroke="black" fill="none" stroke-linecap="round"></path><path d="M 207.600,191.800 C 208.862,195.082 209.377,194.971 211.600,197.800" stroke-width="3.890" stroke="black" fill="none" stroke-linecap="round"></path><path d="M 211.600,197.800 C 214.877,201.971 214.851,202.051 218.600,205.800" stroke-width="3.579" stroke="black" fill="none" stroke-linecap="round"></path><path d="M 218.600,205.800 C 221.851,209.051 221.777,209.252 225.600,211.800" stroke-width="3.572" stroke="black" fill="none" stroke-linecap="round"></path><path d="M 225.600,211.800 C 233.777,217.252 233.854,217.286 242.600,221.800" stroke-width="2.834" stroke="black" fill="none" stroke-linecap="round"></path><path d="M 242.600,221.800 C 249.354,225.286 249.505,225.041 256.600,227.800" stroke-width="2.980" stroke="black" fill="none" stroke-linecap="round"></path><path d="M 256.600,227.800 C 267.505,232.041 267.364,232.763 278.600,235.800" stroke-width="2.584" stroke="black" fill="none" stroke-linecap="round"></path><path d="M 278.600,235.800 C 285.864,237.763 286.071,237.242 293.600,237.800" stroke-width="2.791" stroke="black" fill="none" stroke-linecap="round"></path><path d="M 293.600,237.800 C 299.571,238.242 299.662,238.366 305.600,237.800" stroke-width="3.127" stroke="black" fill="none" stroke-linecap="round"></path><path d="M 305.600,237.800 C 310.162,237.366 310.181,237.063 314.600,235.800" stroke-width="3.520" stroke="black" fill="none" stroke-linecap="round"></path><path d="M 314.600,235.800 C 317.181,235.063 317.990,235.640 319.600,233.800" stroke-width="4.014" stroke="black" fill="none" stroke-linecap="round"></path><path d="M 319.600,233.800 C 321.490,231.640 320.916,230.878 321.600,227.800" stroke-width="4.117" stroke="black" fill="none" stroke-linecap="round"></path><path d="M 321.600,227.800 C 322.916,221.878 324.090,221.683 323.600,215.800" stroke-width="4.135" stroke="black" fill="none" stroke-linecap="round"></path><path d="M 323.600,215.800 C 323.090,209.683 321.887,209.681 319.600,203.800" stroke-width="4.110" stroke="black" fill="none" stroke-linecap="round"></path><path d="M 319.600,203.800 C 318.387,200.681 318.706,200.327 316.600,197.800" stroke-width="4.006" stroke="black" fill="none" stroke-linecap="round"></path><path d="M 316.600,197.800 C 313.706,194.327 313.119,194.778 309.600,191.800" stroke-width="3.748" stroke="black" fill="none" stroke-linecap="round"></path><path d="M 309.600,191.800 C 306.619,189.278 307.024,188.512 303.600,186.800" stroke-width="3.770" stroke="black" fill="none" stroke-linecap="round"></path><path d="M 303.600,186.800 C 299.024,184.512 298.471,185.626 293.600,183.800" stroke-width="3.621" stroke="black" fill="none" stroke-linecap="round"></path><path d="M 293.600,183.800 C 290.471,182.626 290.793,181.484 287.600,180.800" stroke-width="3.900" stroke="black" fill="none" stroke-linecap="round"></path><path d="M 287.600,180.800 C 283.793,179.984 283.600,180.800 279.600,180.800" stroke-width="3.896" stroke="black" fill="none" stroke-linecap="round"></path><path d="M 279.600,180.800 C 274.100,180.800 274.100,180.800 268.600,180.800" stroke-width="3.484" stroke="black" fill="none" stroke-linecap="round"></path><path d="M 268.600,180.800 C 265.600,180.800 265.537,180.348 262.600,180.800" stroke-width="3.930" stroke="black" fill="none" stroke-linecap="round"></path><path d="M 262.600,180.800 C 259.037,181.348 259.141,181.983 255.600,182.800" stroke-width="3.982" stroke="black" fill="none" stroke-linecap="round"></path><path d="M 255.600,182.800 C 252.641,183.483 248.518,183.027 249.600,183.800" stroke-width="4.529" stroke="black" fill="none" stroke-linecap="round"></path><path d="M 249.600,183.800 C 252.018,185.527 255.920,186.687 262.600,187.800" stroke-width="4.639" stroke="black" fill="none" stroke-linecap="round"></path><path d="M 262.600,187.800 C 276.920,190.187 277.071,189.703 291.600,190.800" stroke-width="2.405" stroke="black" fill="none" stroke-linecap="round"></path><path d="M 291.600,190.800 C 303.571,191.703 303.594,191.569 315.600,191.800" stroke-width="2.293" stroke="black" fill="none" stroke-linecap="round"></path><path d="M 315.600,191.800 C 329.594,192.069 329.600,191.800 343.600,191.800" stroke-width="2.173" stroke="black" fill="none" stroke-linecap="round"></path><path d="M 343.600,191.800 C 350.600,191.800 350.745,192.694 357.600,191.800" stroke-width="2.693" stroke="black" fill="none" stroke-linecap="round"></path><path d="M 357.600,191.800 C 362.245,191.194 362.016,189.946 366.600,188.800" stroke-width="3.275" stroke="black" fill="none" stroke-linecap="round"></path><path d="M 366.600,188.800 C 370.016,187.946 370.130,188.467 373.600,187.800" stroke-width="3.690" stroke="black" fill="none" stroke-linecap="round"></path><path d="M 373.600,187.800 C 383.130,185.967 382.978,184.889 392.600,183.800" stroke-width="2.874" stroke="black" fill="none" stroke-linecap="round"></path><path d="M 392.600,183.800 C 409.478,181.889 409.588,182.377 426.600,181.800" stroke-width="2.091" stroke="black" fill="none" stroke-linecap="round"></path><path d="M 426.600,181.800 C 439.088,181.377 439.100,181.800 451.600,181.800" stroke-width="2.218" stroke="black" fill="none" stroke-linecap="round"></path><path d="M 451.600,181.800 C 463.600,181.800 463.600,181.800 475.600,181.800" stroke-width="2.240" stroke="black" fill="none" stroke-linecap="round"></path><path d="M 475.600,181.800 C 478.100,181.800 478.100,181.800 480.600,181.800" stroke-width="3.390" stroke="black" fill="none" stroke-linecap="round"></path><path d="M 348.600,122.800 C 346.100,121.300 346.340,120.432 343.600,119.800" stroke-width="5.384" stroke="black" fill="none" stroke-linecap="round"></path><path d="M 343.600,119.800 C 339.840,118.932 339.581,119.535 335.600,119.800" stroke-width="4.794" stroke="black" fill="none" stroke-linecap="round"></path><path d="M 335.600,119.800 C 332.081,120.035 330.469,118.697 328.600,120.800" stroke-width="4.239" stroke="black" fill="none" stroke-linecap="round"></path><path d="M 328.600,120.800 C 326.469,123.197 327.887,124.787 327.600,128.800" stroke-width="4.432" stroke="black" fill="none" stroke-linecap="round"></path><path d="M 327.600,128.800 C 327.387,131.787 326.573,132.129 327.600,134.800" stroke-width="4.236" stroke="black" fill="none" stroke-linecap="round"></path><path d="M 327.600,134.800 C 329.073,138.629 329.916,138.445 332.600,141.800" stroke-width="3.814" stroke="black" fill="none" stroke-linecap="round"></path><path d="M 332.600,141.800 C 335.916,145.945 335.851,146.051 339.600,149.800" stroke-width="3.560" stroke="black" fill="none" stroke-linecap="round"></path><path d="M 339.600,149.800 C 342.851,153.051 343.191,152.701 346.600,155.800" stroke-width="3.620" stroke="black" fill="none" stroke-linecap="round"></path><path d="M 346.600,155.800 C 348.691,157.701 351.425,158.769 350.600,159.800" stroke-width="3.979" stroke="black" fill="none" stroke-linecap="round"></path><path d="M 350.600,159.800 C 349.425,161.269 346.580,160.172 342.600,160.800" stroke-width="4.765" stroke="black" fill="none" stroke-linecap="round"></path><path d="M 342.600,160.800 C 337.080,161.672 337.128,162.109 331.600,162.800" stroke-width="3.714" stroke="black" fill="none" stroke-linecap="round"></path><path d="M 331.600,162.800 C 329.128,163.109 325.298,163.037 326.600,162.800" stroke-width="4.474" stroke="black" fill="none" stroke-linecap="round"></path><path d="M 378.600,121.800 C 375.100,123.800 373.955,122.803 371.600,125.800" stroke-width="5.348" stroke="black" fill="none" stroke-linecap="round"></path><path d="M 371.600,125.800 C 368.455,129.803 369.650,130.821 367.600,135.800" stroke-width="3.783" stroke="black" fill="none" stroke-linecap="round"></path><path d="M 367.600,135.800 C 366.150,139.321 365.462,139.136 364.600,142.800" stroke-width="3.854" stroke="black" fill="none" stroke-linecap="round"></path><path d="M 364.600,142.800 C 363.462,147.636 363.878,147.789 363.600,152.800" stroke-width="3.625" stroke="black" fill="none" stroke-linecap="round"></path><path d="M 363.600,152.800 C 363.378,156.789 362.428,157.285 363.600,160.800" stroke-width="4.196" stroke="black" fill="none" stroke-linecap="round"></path><path d="M 363.600,160.800 C 364.428,163.285 365.295,163.263 367.600,164.800" stroke-width="4.603" stroke="black" fill="none" stroke-linecap="round"></path><path d="M 367.600,164.800 C 369.795,166.263 370.006,166.152 372.600,166.800" stroke-width="4.319" stroke="black" fill="none" stroke-linecap="round"></path><path d="M 372.600,166.800 C 376.006,167.652 376.082,167.549 379.600,167.800" stroke-width="4.018" stroke="black" fill="none" stroke-linecap="round"></path><path d="M 379.600,167.800 C 383.082,168.049 387.765,167.966 386.600,167.800" stroke-width="4.464" stroke="black" fill="none" stroke-linecap="round"></path><path d="M 399.600,135.800 C 399.600,138.300 399.807,138.315 399.600,140.800" stroke-width="5.488" stroke="black" fill="none" stroke-linecap="round"></path><path d="M 399.600,140.800 C 399.307,144.315 398.600,144.296 398.600,147.800" stroke-width="4.386" stroke="black" fill="none" stroke-linecap="round"></path><path d="M 398.600,147.800 C 398.600,151.796 397.498,153.173 399.600,155.800" stroke-width="4.497" stroke="black" fill="none" stroke-linecap="round"></path><path d="M 399.600,155.800 C 401.498,158.173 403.037,157.252 406.600,157.800" stroke-width="4.802" stroke="black" fill="none" stroke-linecap="round"></path><path d="M 406.600,157.800 C 409.537,158.252 409.621,158.048 412.600,157.800" stroke-width="4.332" stroke="black" fill="none" stroke-linecap="round"></path><path d="M 412.600,157.800 C 415.621,157.548 416.057,158.187 418.600,156.800" stroke-width="4.149" stroke="black" fill="none" stroke-linecap="round"></path><path d="M 418.600,156.800 C 421.557,155.187 424.682,151.620 423.600,151.800" stroke-width="4.492" stroke="black" fill="none" stroke-linecap="round"></path><path d="M 421.600,131.800 C 425.600,131.800 425.619,132.065 429.600,131.800" stroke-width="5.285" stroke="black" fill="none" stroke-linecap="round"></path><path d="M 429.600,131.800 C 433.119,131.565 433.106,131.338 436.600,130.800" stroke-width="4.829" stroke="black" fill="none" stroke-linecap="round"></path></svg>